<svg width="315" height="315" viewBox="0 0 315 315" fill="none" xmlns="http://www.w3.org/2000/svg">
<path d="M143.941 13.8115C151.501 6.49841 163.499 6.49841 171.059 13.8115L189.062 31.2285C193.606 35.625 199.926 37.6785 206.187 36.793L230.989 33.2842C241.404 31.8114 251.11 38.8639 252.927 49.2236L257.255 73.8955C258.347 80.1235 262.252 85.4993 267.838 88.4629L289.966 100.203C299.257 105.133 302.964 116.543 298.345 125.992L287.345 148.497C284.568 154.178 284.568 160.822 287.345 166.503L298.345 189.008C302.964 198.457 299.257 209.867 289.966 214.797L267.838 226.537C262.252 229.501 258.347 234.877 257.255 241.104L252.927 265.776C251.11 276.136 241.404 283.189 230.989 281.716L206.187 278.207C199.926 277.321 193.606 279.375 189.062 283.771L171.059 301.188C163.499 308.502 151.501 308.502 143.941 301.188L125.938 283.771C121.394 279.375 115.074 277.321 108.813 278.207L84.0107 281.716C73.5965 283.189 63.8905 276.136 62.0732 265.776L57.7451 241.104C56.6526 234.876 52.7477 229.501 47.1621 226.537L25.0342 214.797C15.743 209.867 12.0362 198.457 16.6553 189.008L27.6553 166.503C30.4322 160.822 30.4322 154.178 27.6553 148.497L16.6553 125.992C12.0362 116.543 15.743 105.133 25.0342 100.203L47.1621 88.4629C52.7477 85.4993 56.6526 80.1235 57.7451 73.8955L62.0732 49.2236C63.8905 38.8639 73.5965 31.8114 84.0107 33.2842L108.813 36.793C115.074 37.6785 121.394 35.625 125.938 31.2285L143.941 13.8115Z" fill="#DF0505" stroke="white"/>
<path d="M105.25 108H112.1V138.05H128V144H105.25V108ZM142.206 108H150.406L159.906 144H152.356L150.606 135.65H141.656L139.856 144H132.606L142.206 108ZM146.106 115.2L142.806 130.45H149.556L146.356 115.2H146.106ZM177.512 144.75C172.512 144.75 167.612 142.7 164.062 139.25L167.612 134.65C171.062 137.6 174.462 138.95 177.612 138.95C180.962 138.95 183.162 137.2 183.162 134.45C183.162 132.05 181.962 130.75 176.212 128.8L173.512 127.9C167.862 126 165.212 122.65 165.212 118.2C165.212 112 170.112 107.25 177.712 107.25C182.812 107.25 186.962 108.95 190.312 112.3L186.762 116.8C184.062 114.2 180.812 112.9 177.762 112.9C174.412 112.9 172.312 114.55 172.312 117.2C172.312 119.2 173.512 120.5 178.112 122.1L180.812 123.05C187.962 125.45 190.262 128.4 190.262 133.45C190.262 139.85 185.412 144.75 177.512 144.75ZM205.068 114.05H195.468V108H221.568V114.05H211.968V144H205.068V114.05ZM116.25 206.75C107.35 206.75 102.25 200.1 102.25 188C102.25 175.95 107.55 169.25 116.7 169.25C122.85 169.25 128.45 173.55 128.7 181.95H121.95C121.65 178.25 119.85 175.4 116.6 175.4C112.05 175.4 109.5 179.8 109.5 187.95C109.5 196.05 112.25 200.45 116.95 200.45C119.9 200.45 122.4 199.35 125.45 196.55L128.55 201.25C124.75 205.1 120.45 206.75 116.25 206.75ZM142.206 170H150.406L159.906 206H152.356L150.606 197.65H141.656L139.856 206H132.606L142.206 170ZM146.106 177.2L142.806 192.45H149.556L146.356 177.2H146.106ZM167.262 170H174.112V200.05H190.012V206H167.262V170ZM198.268 170H205.118V200.05H221.018V206H198.268V170Z" fill="white"/>
</svg>
