<svg width="315" height="315" viewBox="0 0 315 315" fill="none" xmlns="http://www.w3.org/2000/svg">
<path d="M143.941 13.8115C151.501 6.49841 163.499 6.49841 171.059 13.8115L189.062 31.2285C193.606 35.625 199.926 37.6785 206.187 36.793L230.989 33.2842C241.404 31.8114 251.11 38.8639 252.927 49.2236L257.255 73.8955C258.347 80.1235 262.252 85.4993 267.838 88.4629L289.966 100.203C299.257 105.133 302.964 116.543 298.345 125.992L287.345 148.497C284.568 154.178 284.568 160.822 287.345 166.503L298.345 189.008C302.964 198.457 299.257 209.867 289.966 214.797L267.838 226.537C262.252 229.501 258.347 234.877 257.255 241.104L252.927 265.776C251.11 276.136 241.404 283.189 230.989 281.716L206.187 278.207C199.926 277.321 193.606 279.375 189.062 283.771L171.059 301.188C163.499 308.502 151.501 308.502 143.941 301.188L125.938 283.771C121.394 279.375 115.074 277.321 108.813 278.207L84.0107 281.716C73.5965 283.189 63.8905 276.136 62.0732 265.776L57.7451 241.104C56.6526 234.876 52.7477 229.501 47.1621 226.537L25.0342 214.797C15.743 209.867 12.0362 198.457 16.6553 189.008L27.6553 166.503C30.4322 160.822 30.4322 154.178 27.6553 148.497L16.6553 125.992C12.0362 116.543 15.743 105.133 25.0342 100.203L47.1621 88.4629C52.7477 85.4993 56.6526 80.1235 57.7451 73.8955L62.0732 49.2236C63.8905 38.8639 73.5965 31.8114 84.0107 33.2842L108.813 36.793C115.074 37.6785 121.394 35.625 125.938 31.2285L143.941 13.8115Z" fill="#DF0505" stroke="white"/>
<path d="M186.155 181.852H176.171V175.56H203.315V181.852H193.331V213H186.155V181.852Z" fill="white"/>
<path d="M157.497 213.78C149.125 213.78 144.809 209.568 144.809 200.468V175.56H151.985V200.208C151.985 205.252 153.753 207.384 157.549 207.384C161.241 207.384 163.061 205.252 163.061 200.208V175.56H170.185V200.468C170.185 209.568 165.921 213.78 157.497 213.78Z" fill="white"/>
<path d="M125.199 213.78C115.735 213.78 110.847 207.02 110.847 194.02C110.847 181.332 115.839 174.78 125.459 174.78C134.819 174.78 139.655 181.332 139.655 194.02C139.655 207.02 134.663 213.78 125.199 213.78ZM125.407 207.228C129.827 207.228 132.063 202.756 132.063 194.02C132.063 185.596 129.775 181.28 125.355 181.28C120.779 181.28 118.439 185.596 118.439 194.02C118.439 202.756 120.831 207.228 125.407 207.228Z" fill="white"/>
<path d="M192.658 111.56H205.034C215.018 111.56 219.854 118.164 219.854 130.384C219.854 142.5 214.706 149 204.15 149H192.658V111.56ZM205.034 142.812C210.182 142.812 212.314 138.496 212.314 130.384C212.314 122.116 210.182 117.748 205.034 117.748H199.886V142.812H205.034Z" fill="white"/>
<path d="M162.96 111.56H170.084V142.812H186.62V149H162.96V111.56Z" fill="white"/>
<path d="M141.322 149.78C131.858 149.78 126.97 143.02 126.97 130.02C126.97 117.332 131.962 110.78 141.582 110.78C150.942 110.78 155.778 117.332 155.778 130.02C155.778 143.02 150.786 149.78 141.322 149.78ZM141.53 143.228C145.95 143.228 148.186 138.756 148.186 130.02C148.186 121.596 145.898 117.28 141.478 117.28C136.902 117.28 134.562 121.596 134.562 130.02C134.562 138.756 136.954 143.228 141.53 143.228Z" fill="white"/>
<path d="M109.128 149.78C103.928 149.78 98.8316 147.648 95.1396 144.06L98.8316 139.276C102.42 142.344 105.956 143.748 109.232 143.748C112.716 143.748 115.004 141.928 115.004 139.068C115.004 136.572 113.756 135.22 107.776 133.192L104.968 132.256C99.0916 130.28 96.3356 126.796 96.3356 122.168C96.3356 115.72 101.432 110.78 109.336 110.78C114.64 110.78 118.956 112.548 122.44 116.032L118.748 120.712C115.94 118.008 112.56 116.656 109.388 116.656C105.904 116.656 103.72 118.372 103.72 121.128C103.72 123.208 104.968 124.56 109.752 126.224L112.56 127.212C119.996 129.708 122.388 132.776 122.388 138.028C122.388 144.684 117.344 149.78 109.128 149.78Z" fill="white"/>
</svg>
